<svg xmlns="http://www.w3.org/2000/svg" width="182.34" height="729.1" viewBox="0 0 182.34 729.1"><title>suicorr_CMYK</title><path d="M182.34 688.82c0 12.13-1.81 24-5.68 40.28l-20.4-4.39c2.84-12.91 4.13-22.72 4.13-31.76 0-16.27-5.16-24.27-15-24.27-9 0-12.14 3.36-16.27 20.65-5.68 23.5-14.2 38.73-36.15 38.73-24.53 0-38.47-16.78-38.47-46 0-11.1 2.06-24 6.45-38.47l18.85 3.87c-1.29 5.68-3.87 18.85-3.87 29.95 0 12.39 4.65 19.88 13.68 19.88 23.75 0 6.45-59.9 50.86-59.9 26.89.05 41.87 18.64 41.87 51.43zM179.45 537h-10.8c9.55 18.07 13.68 32 13.68 42.86 0 13.68-4.65 22.72-12.39 28.14s-16.52 6.2-32.79 6.2h-80.3v-31.24h74.1c15.75 0 25.3-1 25.3-16.78 0-7.75-1.81-17.3-5.16-27.11H56.85v-31.24h122.6v29.18zM179.45 473.75H56.86v-31.2h122.59v31.2zM182.34 366.6c0 29.18-23 48.8-63.26 48.8s-65.06-21.17-65.06-52.67c0-10.33 2.58-24.27 8.52-42.34l18.85 4.65c-3.1 13.17-3.87 19.11-3.87 27.88 0 19.36 13.43 29.69 40.54 29.69 26.08 0 39.24-9.81 39.24-27.63 0-8-2.07-18.59-5.68-31.5l17.81-5.68c8.52 20.4 12.91 36.41 12.91 48.8zM181.82 246.55c0 37.18-23.24 58.87-63.51 58.87-39.76 0-64.29-21.95-64.29-58.87 0-37.69 23-58.87 64-58.87 40.82.03 63.8 21.46 63.8 58.87zm-105.6 0c0 17.82 13.17 26.08 41.31 26.08 30.21 0 42.34-8 42.34-26.34 0-18.07-12.13-25.82-41.57-25.82-29.69.03-42.08 7.52-42.08 26.08zM81.64 99.15c0 10.84 1.29 19.36 5.94 30.21h91.87v31.19H56.86v-29.13h12.39c-10.07-13.43-14.46-25-14.46-37.18 0-2.07.26-4.65.26-4.65h27.11a66.12 66.12 0 0 0-.52 9.56zM81.64 9.55c0 10.84 1.29 19.36 5.94 30.21h91.87V71H56.86V41.84h12.39c-10.07-13.43-14.46-25-14.46-37.18 0-2.07.26-4.65.26-4.65h27.11a66.12 66.12 0 0 0-.52 9.54z" fill="#6b3200"/><path d="M0 473.75V0h28.45v473.75H.02z" fill="#1d1d1b"/></svg>